<svg id="Layer_2" height="512" viewBox="0 0 128 128" width="512" xmlns="http://www.w3.org/2000/svg" data-name="Layer 2"><path d="m97.3 64a33.656 33.656 0 0 0 -21.615-31.176 33.308 33.308 0 0 0 -11.685-2.124 33.656 33.656 0 0 0 -31.287 21.915 33.312 33.312 0 0 0 -2.013 11.385 33.655 33.655 0 0 0 21.61 31.173 33.29 33.29 0 0 0 11.69 2.127 33.656 33.656 0 0 0 31.287-21.915 33.312 33.312 0 0 0 2.013-11.385zm-8.012 15.742-8.988-8.992h12.72a29.653 29.653 0 0 1 -3.732 8.992zm-22.057 13.881a30.458 30.458 0 0 1 -6.481 0v-16.741a12.814 12.814 0 0 0 6.5 0v16.738zm-32.251-22.873h12.72l-8.992 8.992a29.653 29.653 0 0 1 -3.728-8.992zm3.732-22.492 8.988 8.992h-12.72a29.653 29.653 0 0 1 3.732-8.992zm22.057-13.881a30.458 30.458 0 0 1 6.481 0v16.741a12.814 12.814 0 0 0 -6.5 0v-16.738zm-8.169 22.814-11.83-11.825a29.991 29.991 0 0 1 4.6-4.6l11.821 11.834a13.389 13.389 0 0 0 -4.591 4.591zm4.6 18.214-11.834 11.825a29.991 29.991 0 0 1 -4.6-4.6l11.834-11.821a13.389 13.389 0 0 0 4.591 4.596zm-3-11.405a9.8 9.8 0 1 1 9.8 9.8 9.812 9.812 0 0 1 -9.8-9.8zm21.206 6.809 11.824 11.825a29.991 29.991 0 0 1 -4.6 4.6l-11.821-11.829a13.389 13.389 0 0 0 4.596-4.596zm-4.597-18.209 11.825-11.83a29.991 29.991 0 0 1 4.6 4.6l-11.829 11.821a13.389 13.389 0 0 0 -4.596-4.591zm-.059-4.89v-12.73a29.629 29.629 0 0 1 8.992 3.733zm-13.5 0-8.992-8.992a29.629 29.629 0 0 1 8.992-3.738zm-23.006 14.69c.029-.549.077-1.1.136-1.645h16.738a12.814 12.814 0 0 0 0 6.5h-16.738a30.051 30.051 0 0 1 -.136-4.855zm23.006 17.9v12.72a29.629 29.629 0 0 1 -8.992-3.733zm13.5 0 8.992 8.992a29.629 29.629 0 0 1 -8.992 3.728zm23.006-14.69c-.029.549-.077 1.1-.136 1.645h-16.738a12.814 12.814 0 0 0 0-6.5h16.738a30.051 30.051 0 0 1 .136 4.85zm-13.456-8.36 8.992-8.992a29.653 29.653 0 0 1 3.728 8.992z"/><path d="m121.25 57.25h-9.431a48.05 48.05 0 0 0 -9.244-22.28l6.68-6.68a6.75 6.75 0 1 0 -9.546-9.545l-6.679 6.68a48.05 48.05 0 0 0 -22.28-9.244v-9.431a6.75 6.75 0 0 0 -13.5 0v9.431a48.05 48.05 0 0 0 -22.28 9.244l-6.679-6.68a6.75 6.75 0 1 0 -9.546 9.545l6.68 6.68a48.05 48.05 0 0 0 -9.244 22.28h-9.431a6.75 6.75 0 0 0 0 13.5h9.431a48.05 48.05 0 0 0 9.244 22.28l-6.68 6.68a6.75 6.75 0 0 0 9.546 9.545l6.679-6.68a48.05 48.05 0 0 0 22.28 9.244v9.431a6.75 6.75 0 0 0 13.5 0v-9.431a48.05 48.05 0 0 0 22.28-9.244l6.679 6.68a6.75 6.75 0 1 0 9.546-9.545l-6.68-6.68a48.05 48.05 0 0 0 9.244-22.28h9.431a6.75 6.75 0 0 0 0-13.5zm-12.711 11.563a44.583 44.583 0 0 1 -9.654 23.252l-.007.006a45.211 45.211 0 0 1 -6.807 6.807l-.008.009a44.583 44.583 0 0 1 -23.246 9.651 44.255 44.255 0 0 1 -9.626 0 44.583 44.583 0 0 1 -23.246-9.651l-.008-.009a45.211 45.211 0 0 1 -6.807-6.807l-.007-.006a44.583 44.583 0 0 1 -9.654-23.252 44.33 44.33 0 0 1 0-9.625 44.583 44.583 0 0 1 9.654-23.252l.007-.006a45.211 45.211 0 0 1 6.807-6.807l.008-.009a44.583 44.583 0 0 1 23.246-9.651 44.255 44.255 0 0 1 9.626 0h.007a44.593 44.593 0 0 1 23.243 9.651l.008.009a45.211 45.211 0 0 1 6.807 6.807l.007.006a44.583 44.583 0 0 1 9.654 23.252 44.33 44.33 0 0 1 0 9.625zm-12.782-41.166 6.427-6.427a3.25 3.25 0 1 1 4.6 4.6l-6.427 6.428c-.025-.028-.052-.054-.077-.082a48.767 48.767 0 0 0 -4.437-4.437c-.032-.029-.058-.057-.086-.082zm-35.007-11.835v-9.062a3.25 3.25 0 0 1 6.5 0v9.062a47.634 47.634 0 0 0 -6.5 0zm-33.1 16.431-6.43-6.428a3.25 3.25 0 0 1 4.6-4.6l6.427 6.427c-.028.025-.054.052-.082.077a48.767 48.767 0 0 0 -4.437 4.437c-.028.033-.056.059-.081.087zm-11.838 35.007h-9.062a3.25 3.25 0 0 1 0-6.5h9.062a47.315 47.315 0 0 0 0 6.5zm16.431 33.1-6.427 6.427a3.25 3.25 0 1 1 -4.6-4.595l6.427-6.428c.025.028.052.054.077.082a48.767 48.767 0 0 0 4.437 4.437c.032.027.058.055.086.08zm35.007 11.838v9.062a3.25 3.25 0 0 1 -6.5 0v-9.062a47.634 47.634 0 0 0 6.5 0zm33.1-16.431 6.427 6.428a3.25 3.25 0 0 1 -4.6 4.595l-6.427-6.427c.028-.025.054-.052.082-.077a48.767 48.767 0 0 0 4.437-4.437c.031-.028.059-.054.084-.082zm20.9-28.507h-9.062a47.315 47.315 0 0 0 0-6.5h9.062a3.25 3.25 0 0 1 0 6.5z"/></svg>