<svg id="Capa_1" enable-background="new 0 0 509.993 509.993" height="512" viewBox="0 0 509.993 509.993" width="512" xmlns="http://www.w3.org/2000/svg"><path d="m498.262 71.56-50.212-11.37c-8.077-1.831-16.112 3.237-17.942 11.316-1.83 8.08 3.237 16.113 11.317 17.942l14.894 3.373-92.383 58.27v-76.835c0-.01.001-.02.001-.031 0-5.116-2.654-9.941-6.998-12.687l-93.893-59.225c-4.889-3.084-11.116-3.084-16.005 0l-93.894 59.226c-4.398 2.774-7 7.643-7 12.691v76.918l-92.474-58.326 14.894-3.373c8.08-1.829 13.146-9.862 11.317-17.942-1.829-8.079-9.862-13.146-17.942-11.316l-50.212 11.369c-7.961 1.803-13.16 9.802-11.317 17.942l11.37 50.212c1.831 8.09 9.876 13.146 17.942 11.316 8.08-1.83 13.146-9.862 11.316-17.942l-3.372-14.892 95.36 60.147-73.776 46.537c-4.315 2.718-6.998 7.548-6.998 12.687 0 .01.001.02.001.031v104.092c0 5.15 2.642 9.94 6.998 12.687l93.89 59.22c4.842 3.06 11.111 3.086 16.004 0l70.899-44.714v89.905l-8.395-8.394c-5.857-5.858-15.355-5.858-21.213 0s-5.858 15.355 0 21.213l33.999 33.999c5.892 5.896 15.429 5.808 21.237-.024l33.975-33.975c5.858-5.858 5.858-15.355 0-21.213-5.857-5.858-15.355-5.858-21.213 0l-8.391 8.39v-89.899l70.887 44.711c4.844 3.06 11.115 3.084 16.004 0l93.9-59.22c4.356-2.748 6.999-7.537 6.999-12.688 0-1.337.003-103.141-.005-104.221-.033-5.07-2.658-9.849-6.994-12.588l-73.826-46.567 95.312-60.116-3.372 14.892c-1.83 8.08 3.237 16.113 11.316 17.942 8.076 1.831 16.113-3.235 17.942-11.316l11.37-50.212c1.841-8.128-3.339-16.137-11.317-17.942zm-258.216 138.813-63.9-40.306v-68.647l63.9 40.306zm30-.062v-68.589l63.89-40.3v68.591zm-15.003-177.576 65.778 41.491-65.778 41.491-65.778-41.491zm-93.901 163.346 65.783 41.488-65.776 41.49-65.778-41.491zm-78.886 68.683 63.89 40.3v68.65l-63.89-40.298zm93.89 40.304 63.9-40.306v68.654l-63.9 40.3zm93.901-40.304 63.89 40.3v68.65l-63.89-40.298zm93.889 108.952v-68.647l63.9-40.307v68.654zm-14.996-94.657-65.776-41.49 65.78-41.49 65.774 41.488z"/></svg>