<svg height="496pt" viewBox="0 0 496 496" width="496pt" xmlns="http://www.w3.org/2000/svg"><path d="m488 280c4.425781 0 8-3.574219 8-8v-48c0-4.414062-3.574219-8-8-8h-18.3125c-1.128906-7.824219-2.679688-15.632812-4.640625-23.351562l25.015625-10.191407c1.96875-.800781 3.53125-2.351562 4.363281-4.304687.820313-1.960938.832031-4.160156.03125-6.128906l-17.082031-41.910157c-1.671875-4.089843-6.359375-6.058593-10.421875-4.394531l-25.007813 10.183594c-4.632812-7.992188-9.792968-15.734375-15.402343-23.140625l19.113281-19.113281c3.128906-3.128907 3.128906-8.183594 0-11.3125l-32-32c-3.128906-3.128907-8.183594-3.128907-11.3125 0l-19.121094 19.113281c-6.695312-5.082031-13.6875-9.792969-20.886718-14.082031l10.488281-24.886719c.824219-1.960938.832031-4.160157.03125-6.128907s-2.34375-3.527343-4.304688-4.351562l-41.710937-17.558594c-4.023438-1.699218-8.761719.191406-10.480469 4.269532l-10.472656 24.875c-8.496094-2.257813-17.160157-4.027344-25.886719-5.273438v-18.3125c0-4.414062-3.574219-8-8-8h-48c-4.425781 0-8 3.585938-8 8v18.3125c-7.824219 1.128906-15.632812 2.679688-23.351562 4.648438l-10.191407-25.015626c-1.671875-4.097656-6.359375-6.058593-10.425781-4.394531l-41.910156 17.074219c-1.96875.800781-3.527344 2.351562-4.359375 4.304688-.824219 1.957031-.832031 4.160156-.035157 6.125l10.183594 25c-7.980468 4.625-15.726562 9.785156-23.140625 15.410156l-19.121093-19.113282c-3.128907-3.128906-8.183594-3.128906-11.3125 0l-32 32c-3.128907 3.128907-3.128907 8.183594 0 11.3125l19.113281 19.113282c-5.082031 6.703125-9.792969 13.695312-14.082031 20.894531l-24.886719-10.480469c-4.03125-1.695312-8.761719.191406-10.480469 4.273438l-17.558594 41.703125c-1.714844 4.070312.191406 8.761719 4.269532 10.480469l24.875 10.480468c-2.257813 8.480469-4.027344 17.144532-5.273438 25.871094h-18.3125c-4.425781 0-8 3.585938-8 8v48c0 4.425781 3.574219 8 8 8h18.3125c1.128906 7.824219 2.679688 15.632812 4.640625 23.351562l-25.015625 10.191407c-1.96875.800781-3.53125 2.34375-4.363281 4.304687-.820313 1.953125-.832031 4.160156-.03125 6.121094l17.082031 41.910156c.800781 1.96875 2.34375 3.527344 4.304688 4.359375 1.957031.832031 4.167968.839844 6.117187.035157l25-10.183594c4.632813 7.988281 9.792969 15.734375 15.410156 23.140625l-19.113281 19.121093c-3.128906 3.128907-3.128906 8.183594 0 11.3125l32 32c3.128906 3.128907 8.183594 3.128907 11.3125 0l19.121094-19.113281c6.695312 5.082031 13.6875 9.792969 20.886718 14.082031l-10.488281 24.886719c-1.710937 4.074219.191407 8.761719 4.273438 10.480469l41.710937 17.558594c1.960938.816406 4.160156.839844 6.121094.035156 1.964844-.800781 3.527344-2.347656 4.359375-4.304688l10.472656-24.875c8.496094 2.265626 17.167969 4.035157 25.886719 5.28125v18.304688c0 4.425781 3.574219 8 8 8h48c4.425781 0 8-3.574219 8-8v-18.3125c7.824219-1.128906 15.632812-2.679688 23.351562-4.640625l10.191407 25.015625c.800781 1.96875 2.34375 3.53125 4.304687 4.363281 1.960938.820313 4.167969.839844 6.121094.03125l41.910156-17.082031c1.96875-.800781 3.527344-2.34375 4.359375-4.304688.824219-1.949218.832031-4.160156.035157-6.117187l-10.183594-25c7.988281-4.632813 15.734375-9.792969 23.140625-15.410156l19.121093 19.113281c3.128907 3.128906 8.183594 3.128906 11.3125 0l32-32c3.128907-3.128906 3.128907-8.183594 0-11.3125l-19.113281-19.121094c5.082031-6.695312 9.792969-13.6875 14.082031-20.886718l24.886719 10.488281c4.03125 1.679687 8.761719-.183594 10.480469-4.273438l17.558594-41.710937c.824218-1.953125.832031-4.160156.035156-6.121094-.800781-1.964844-2.347656-3.527344-4.304688-4.359375l-24.875-10.472656c2.265626-8.496094 4.035157-17.167969 5.28125-25.886719zm-36.320312 37.886719 24.023437 10.113281-11.351563 26.96875-24.046874-10.128906c-3.746094-1.558594-8.128907-.070313-10.105469 3.503906-5.902344 10.6875-12.816407 20.945312-20.542969 30.488281-2.578125 3.183594-2.335938 7.800781.558594 10.695313l18.472656 18.472656-20.6875 20.6875-18.472656-18.472656c-2.894532-2.902344-7.511719-3.136719-10.695313-.558594-10.199219 8.265625-21.167969 15.566406-32.609375 21.710938-3.605468 1.929687-5.167968 6.273437-3.621094 10.066406l9.832032 24.152344-27.097656 11.039062-9.839844-24.167969c-1.535156-3.792969-5.664063-5.792969-9.625-4.671875-11.421875 3.292969-23.117188 5.621094-34.75 6.902344-4.050782.449219-7.121094 3.871094-7.121094 7.953125v17.359375h-32v-17.359375c0-4.082031-3.070312-7.503906-7.128906-7.953125-12.550782-1.382812-25.03125-3.925781-37.078125-7.558594-3.953125-1.175781-8.097657.792969-9.6875 4.550782l-10.105469 24.023437-26.96875-11.351563 10.128906-24.046874c1.582032-3.769532.070313-8.128907-3.503906-10.105469-10.6875-5.902344-20.945312-12.816407-30.488281-20.542969-3.175781-2.566406-7.800781-2.34375-10.695313.558594l-18.472656 18.472656-20.6875-20.6875 18.472656-18.472656c2.894532-2.894532 3.144532-7.503906.558594-10.695313-8.265625-10.199219-15.566406-21.167969-21.710938-32.609375-1.929687-3.605468-6.273437-5.183594-10.066406-3.621094l-24.152344 9.832032-11.039062-27.097656 24.167969-9.839844c3.792969-1.535156 5.808593-5.695313 4.671875-9.625-3.292969-11.421875-5.621094-23.117188-6.902344-34.75-.449219-4.050782-3.871094-7.121094-7.953125-7.121094h-17.359375v-32h17.359375c4.082031 0 7.503906-3.0625 7.953125-7.121094 1.382812-12.558594 3.925781-25.03125 7.558594-37.078125 1.183594-3.921875-.78125-8.097656-4.550782-9.679687l-24.023437-10.121094 11.351563-26.960938 24.046874 10.121094c3.769532 1.574219 8.128907.070313 10.113282-3.511718 5.886718-10.671876 12.800781-20.9375 20.535156-30.488282 2.578125-3.175781 2.335938-7.800781-.558594-10.6875l-18.472656-18.472656 20.6875-20.6875 18.472656 18.472656c2.894532 2.902344 7.511719 3.136719 10.695313.558594 10.207031-8.273438 21.183593-15.574219 32.609375-21.703125 3.605468-1.9375 5.167968-6.28125 3.621094-10.074219l-9.832032-24.140625 27.097656-11.042969 9.847657 24.167969c1.535156 3.785157 5.71875 5.816407 9.625 4.664063 11.40625-3.292969 23.101562-5.621094 34.742187-6.902344 4.050782-.449219 7.121094-3.871094 7.121094-7.953125v-17.359375h32v17.359375c0 4.082031 3.070312 7.503906 7.128906 7.953125 12.558594 1.382812 25.039063 3.933594 37.078125 7.566406 3.929688 1.175782 8.105469-.78125 9.6875-4.550781l10.105469-24.023437 26.96875 11.351562-10.128906 24.03125c-1.582032 3.769531-.070313 8.128906 3.503906 10.113281 10.695312 5.902344 20.953125 12.816407 30.488281 20.542969 3.175781 2.578125 7.800781 2.34375 10.695313-.558594l18.472656-18.472656 20.6875 20.6875-18.472656 18.472656c-2.894532 2.894532-3.144532 7.503906-.558594 10.6875 8.253906 10.191406 15.558594 21.167969 21.710938 32.617188 1.929687 3.597656 6.28125 5.160156 10.066406 3.621094l24.152344-9.839844 11.039062 27.097656-24.167969 9.839844c-3.792969 1.542968-5.808593 5.695312-4.671875 9.632812 3.292969 11.414063 5.621094 23.109375 6.902344 34.75.457031 4.058594 3.871094 7.121094 7.953125 7.121094h17.359375v32h-17.359375c-4.082031 0-7.503906 3.070312-7.953125 7.128906-1.382812 12.550782-3.925781 25.03125-7.558594 37.078125-1.191406 3.921875.773438 8.097657 4.550782 9.679688zm0 0"/><path d="m248 56c-105.863281 0-192 86.136719-192 192s86.136719 192 192 192 192-86.136719 192-192-86.136719-192-192-192zm56 358.816406v-35.503906l23.847656-23.847656c4.761719 2.816406 10.230469 4.535156 16.152344 4.535156 17.648438 0 32-14.351562 32-32s-14.351562-32-32-32-32 14.351562-32 32c0 5.921875 1.71875 11.390625 4.535156 16.152344l-26.191406 26.191406c-1.503906 1.496094-2.34375 3.527344-2.34375 5.65625v43.359375c-5.246094 1.226563-10.585938 2.214844-16 2.960937v-91.007812l55.847656-55.847656c4.761719 2.816406 10.230469 4.535156 16.152344 4.535156 17.648438 0 32-14.351562 32-32s-14.351562-32-32-32-32 14.351562-32 32c0 5.921875 1.71875 11.390625 4.535156 16.152344l-20.535156 20.535156v-125.824219c13.769531-3.574219 24-16 24-30.863281 0-17.648438-14.351562-32-32-32s-32 14.351562-32 32c0 14.863281 10.230469 27.289062 24 30.863281v141.824219l-21.65625 21.65625c-1.503906 1.496094-2.34375 3.527344-2.34375 5.65625v95.800781c-2.65625.121094-5.320312.199219-8 .199219-97.046875 0-176-78.953125-176-176 0-77.472656 50.335938-143.359375 120-166.816406v35.503906l-23.847656 23.847656c-4.761719-2.816406-10.230469-4.535156-16.152344-4.535156-17.648438 0-32 14.351562-32 32s14.351562 32 32 32 32-14.351562 32-32c0-5.921875-1.71875-11.390625-4.535156-16.152344l26.191406-26.191406c1.503906-1.496094 2.34375-3.535156 2.34375-5.65625v-43.359375c5.246094-1.226563 10.585938-2.214844 16-2.960937v91.007812l-55.847656 55.847656c-4.761719-2.816406-10.230469-4.535156-16.152344-4.535156-17.648438 0-32 14.351562-32 32s14.351562 32 32 32 32-14.351562 32-32c0-5.921875-1.71875-11.390625-4.535156-16.152344l20.535156-20.535156v125.824219c-13.769531 3.574219-24 15.992187-24 30.863281 0 17.648438 14.351562 32 32 32s32-14.351562 32-32c0-14.871094-10.230469-27.289062-24-30.863281v-141.824219l21.65625-21.65625c1.503906-1.496094 2.34375-3.535156 2.34375-5.65625v-95.800781c2.65625-.121094 5.320312-.199219 8-.199219 97.046875 0 176 78.953125 176 176 0 77.472656-50.335938 143.359375-120 166.816406zm24-86.816406c0-8.824219 7.175781-16 16-16s16 7.175781 16 16-7.175781 16-16 16-16-7.175781-16-16zm-40-184c-8.824219 0-16-7.175781-16-16s7.175781-16 16-16 16 7.175781 16 16-7.175781 16-16 16zm40 104c0-8.824219 7.175781-16 16-16s16 7.175781 16 16-7.175781 16-16 16-16-7.175781-16-16zm-160-80c0 8.824219-7.175781 16-16 16s-16-7.175781-16-16 7.175781-16 16-16 16 7.175781 16 16zm40 184c8.824219 0 16 7.175781 16 16s-7.175781 16-16 16-16-7.175781-16-16 7.175781-16 16-16zm-40-104c0 8.824219-7.175781 16-16 16s-16-7.175781-16-16 7.175781-16 16-16 16 7.175781 16 16zm0 0"/></svg>