<?xml version="1.0" encoding="UTF-8"?>
<svg version="1.1" xmlns="http://www.w3.org/2000/svg" width="685" height="487">
<path d="M0 0 C0.72396973 0.17571533 1.44793945 0.35143066 2.19384766 0.5324707 C6.88975496 1.69107672 11.53777747 2.98928883 16.18359375 4.33300781 C33.62331157 9.35464663 46.45520952 7.58544147 63.73974609 2.43334961 C75.64093361 -1.1042734 87.65117016 -2.83794727 99.1875 2.8125 C106.77104838 9.26658373 110.66064154 18.05484016 114.125 27.1875 C114.55087402 28.28030273 114.97674805 29.37310547 115.41552734 30.49902344 C118.28845119 37.93418933 120.99359557 45.42281043 123.57104492 52.96508789 C126.02315819 60.12950421 128.70887443 67.19503633 131.46142578 74.24902344 C133.26126718 78.89489253 134.84462227 83.4964599 136.125 88.3125 C136.84187988 88.47177979 137.55875977 88.63105957 138.29736328 88.79516602 C146.16915326 90.64073267 153.51942859 93.20252751 161 96.25 C162.08796875 96.67990234 163.1759375 97.10980469 164.296875 97.55273438 C169.65399472 99.71064507 174.49564436 101.84622214 179.125 105.3125 C179.764375 105.76625 180.40375 106.22 181.0625 106.6875 C182.125 108.3125 182.125 108.3125 182.25 111.125 C179.61688267 118.5854991 172.16993795 121.49561065 165.46264648 124.79199219 C160.11889994 127.2264047 154.64141182 129.11928064 149.0625 130.9375 C147.87422607 131.32574951 146.68595215 131.71399902 145.46166992 132.11401367 C74.04610169 154.97259787 -30.83546371 156.04658003 -98.625 121.6875 C-103.17928553 119.00084382 -107.46281264 116.15931368 -109.875 111.3125 C-110.1875 108.25 -110.1875 108.25 -108.875 105.3125 C-103.80967547 99.48351391 -97.30258963 97.17622592 -90.1875 94.6875 C-89.17494141 94.31882812 -88.16238281 93.95015625 -87.11914062 93.5703125 C-86.10658203 93.20421875 -85.09402344 92.838125 -84.05078125 92.4609375 C-83.03838379 92.09452148 -82.02598633 91.72810547 -80.98291016 91.35058594 C-77.875 90.3125 -77.875 90.3125 -74.60693359 89.50097656 C-68.8049448 88.04393806 -68.8049448 88.04393806 -64.21508789 84.43945312 C-62.79759029 81.78273476 -61.82704478 79.17129369 -60.875 76.3125 C-60.42745141 75.04618884 -59.97881417 73.78026209 -59.52929688 72.51464844 C-58.26089695 68.87326863 -57.06369665 65.21166931 -55.88336182 61.54092407 C-54.59157502 57.53212237 -53.26812128 53.53380853 -51.9453125 49.53515625 C-51.68366302 48.74334457 -51.42201355 47.9515329 -51.1524353 47.13572693 C-48.87292291 40.25952623 -46.5016606 33.42413268 -44 26.625 C-43.66774414 25.69606934 -43.33548828 24.76713867 -42.99316406 23.81005859 C-39.51115467 14.50111871 -34.78985703 6.24412304 -25.875 1.3125 C-17.08094335 -2.38436458 -9.14953339 -2.32513256 0 0 Z M-18.875 14.3125 C-24.94001276 19.71036135 -27.36607827 27.83401182 -30.10302734 35.2421875 C-30.8960332 37.36890782 -31.71983757 39.48158814 -32.55078125 41.59375 C-33.09698918 42.99975347 -33.64257912 44.40599721 -34.1875 45.8125 C-34.44208984 46.45832031 -34.69667969 47.10414062 -34.95898438 47.76953125 C-36.54643048 51.94793163 -37.30094024 55.89411935 -37.875 60.3125 C-25.9171168 62.25924387 -13.9894011 62.89910351 -1.89477539 63.37280273 C1.31744199 63.50019599 4.52872879 63.64298924 7.74023438 63.78710938 C22.45820957 64.43708943 22.45820957 64.43708943 37.125 63.3125 C37.18445801 62.54583008 37.24391602 61.77916016 37.30517578 60.98925781 C37.59128776 57.51059985 37.92011689 54.03726872 38.25 50.5625 C38.3428125 49.3559375 38.435625 48.149375 38.53125 46.90625 C39.42002336 38.01851643 39.42002336 38.01851643 42.7734375 34.66015625 C43.87945312 34.21542969 44.98546875 33.77070312 46.125 33.3125 C47.3109375 32.83167969 48.496875 32.35085937 49.71875 31.85546875 C51.01911743 31.39873087 52.32128219 30.9470848 53.625 30.5 C59.20159499 28.48416708 64.65262145 26.31733335 70 23.75 C71.13179688 23.21246094 72.26359375 22.67492187 73.4296875 22.12109375 C76.47553156 20.07728824 77.30995137 18.85394371 78.125 15.3125 C77.63 14.3225 77.63 14.3225 77.125 13.3125 C68.85050999 13.74049086 61.79200112 16.35694196 54.125 19.3125 C54.125 19.9725 54.125 20.6325 54.125 21.3125 C51.90145957 21.85685222 49.67063907 22.37147117 47.4375 22.875 C45.57544922 23.31005859 45.57544922 23.31005859 43.67578125 23.75390625 C31.93563944 25.62641857 21.1847001 22.11313508 10.25 18.3125 C8.19984694 17.61102986 6.14833865 16.91409584 4.0944519 16.22363281 C2.24628867 15.60074496 0.40252259 14.96485375 -1.44091797 14.328125 C-7.71898684 12.47139483 -12.78186045 11.54289111 -18.875 14.3125 Z M-43.875 77.3125 C-46.15744038 81.59714889 -46.15744038 81.59714889 -46.875 86.3125 C-2.1834245 93.90664108 42.52281837 94.45192422 87.625 90.875 C88.79671249 90.78297302 88.79671249 90.78297302 89.99209595 90.68908691 C99.4477978 89.93503932 108.7699021 88.9184858 118.125 87.3125 C117.7228125 85.4253125 117.7228125 85.4253125 117.3125 83.5 C117.16167969 82.79230469 117.01085937 82.08460937 116.85546875 81.35546875 C115.93753707 78.78820529 115.38133125 77.88820707 113.125 76.3125 C110.37683105 76.18867738 107.88760238 76.24846309 105.16015625 76.45703125 C103.4258932 76.55870957 101.6915976 76.65983379 99.95727539 76.76049805 C98.55470993 76.85009293 98.55470993 76.85009293 97.12380981 76.9414978 C76.05714874 78.25804096 55.01863828 78.52953069 33.92008591 78.50231552 C31.71430763 78.5000278 29.5085439 78.50035872 27.30276489 78.50137329 C13.57307239 78.50408641 -0.15102222 78.44707077 -13.87109375 77.875 C-14.77089462 77.83807541 -15.6706955 77.80115082 -16.59776306 77.7631073 C-23.12466887 77.44941784 -29.47604598 76.66128475 -35.9140625 75.51953125 C-39.24190434 75.28684574 -40.99057168 75.65916807 -43.875 77.3125 Z M-72.875 104.3125 C-73.90584717 104.70856445 -74.93669434 105.10462891 -75.9987793 105.51269531 C-78.30614751 106.41360181 -80.59495805 107.34489755 -82.875 108.3125 C-80.37957801 112.05563299 -78.99637972 112.1638947 -74.7421875 113.3984375 C-74.12192688 113.58060318 -73.50166626 113.76276886 -72.86260986 113.95045471 C-70.82857768 114.54253367 -68.7899621 115.11621204 -66.75 115.6875 C-66.05404724 115.88570343 -65.35809448 116.08390686 -64.64105225 116.28811646 C-55.48981453 118.89113927 -46.31295917 121.28799584 -37 123.25 C-35.67911377 123.53012939 -35.67911377 123.53012939 -34.33154297 123.81591797 C-20.24861992 126.61476524 -6.07574196 127.66903578 8.25 128 C9.39539749 128.02944199 9.39539749 128.02944199 10.56393433 128.05947876 C21.78005727 128.33958809 32.97299872 128.33650065 44.1875 128 C45.43354004 127.96543701 46.67958008 127.93087402 47.96337891 127.89526367 C61.90024741 127.51877165 61.90024741 127.51877165 74.625 122.4375 C75.4190625 121.94507812 76.213125 121.45265625 77.03125 120.9453125 C79.1876443 119.2636468 80.60041587 117.57005726 82.125 115.3125 C80.6046027 111.91396485 79.72577463 110.55018511 76.20800781 109.15844727 C71.14633623 107.87399564 66.04696349 108.08462244 60.859375 108.15234375 C59.76394379 108.15790787 58.66851257 108.16347198 57.53988647 108.16920471 C55.1966705 108.18159027 52.8534738 108.19822937 50.51031494 108.21875 C44.41581451 108.27113972 38.32124864 108.29076635 32.2265625 108.30859375 C30.41543472 108.31450027 30.41543472 108.31450027 28.56771851 108.32052612 C18.12157599 108.3411705 7.69013611 108.15406978 -2.75 107.8125 C-3.49205688 107.78840057 -4.23411377 107.76430115 -4.99865723 107.73947144 C-8.95789632 107.60858428 -12.91660404 107.46673387 -16.875 107.3125 C-16.875 106.6525 -16.875 105.9925 -16.875 105.3125 C-21.825 105.3125 -26.775 105.3125 -31.875 105.3125 C-31.875 104.6525 -31.875 103.9925 -31.875 103.3125 C-36.26548636 102.6831501 -40.66208834 102.11782706 -45.0625 101.5625 C-46.28904297 101.38589844 -47.51558594 101.20929688 -48.77929688 101.02734375 C-57.77277584 99.93578694 -64.47422067 101.00327409 -72.875 104.3125 Z " fill="#131615" transform="translate(288.875,1.6875)"/>
<path d="M0 0 C8.79194692 7.72265607 15.77560407 15.57993873 20.0625 26.625 C20.0625 27.615 20.0625 28.605 20.0625 29.625 C24.29555905 29.26534003 28.52238603 28.85600917 32.75 28.4375 C33.94818359 28.33630859 35.14636719 28.23511719 36.38085938 28.13085938 C43.42582792 27.69041521 43.42582792 27.69041521 49.14453125 24.07421875 C49.77746094 23.26597656 50.41039062 22.45773437 51.0625 21.625 C54.83267062 20.10122506 58.92465222 20.58412982 62.9140625 20.7109375 C63.72840256 20.73181427 64.54274261 20.75269104 65.38175964 20.77420044 C67.18723077 20.82054957 68.99264491 20.86915769 70.79800415 20.91967773 C75.90276962 21.06158011 81.00796721 21.18435238 86.11328125 21.3046875 C87.25063217 21.33153625 88.38798309 21.35838501 89.55979919 21.38604736 C99.69936123 21.61481356 109.83918506 21.7572087 119.98046875 21.8828125 C121.20678261 21.89818117 121.20678261 21.89818117 122.45787048 21.91386032 C130.70145903 22.01693746 138.945083 22.11538209 147.18882656 22.20522881 C150.32526326 22.24021988 153.46165611 22.27841651 156.59804726 22.31725693 C158.05250704 22.33450553 159.50698452 22.35033846 160.96147728 22.36453629 C168.73874066 22.44073382 176.51046353 22.61999417 184.2800293 22.97851562 C185.34264717 23.01534077 185.34264717 23.01534077 186.42673206 23.05290985 C191.51719546 23.32175177 194.83166726 24.39380392 198.55078125 27.87890625 C199.04964844 28.45511719 199.54851562 29.03132813 200.0625 29.625 C200.57167969 30.21152344 201.08085938 30.79804688 201.60546875 31.40234375 C204.15854984 34.67057361 205.76194956 37.41729381 206.0625 41.625 C206.11277344 42.29402344 206.16304687 42.96304688 206.21484375 43.65234375 C206.58833624 52.39206798 204.27897268 57.52166918 198.5 64.0625 C191.98921691 71.06506637 185.15580344 70.25863352 176.0625 70.625 C169.03748274 70.84501585 162.01018956 70.95815482 154.98276901 71.07055664 C151.50786418 71.12625133 148.03306558 71.18659486 144.55825806 71.24804688 C135.93636402 71.39961919 127.31434695 71.54361457 118.69232178 71.6875 C111.37856481 71.80981202 104.06487346 71.93521717 96.75123978 72.06469727 C93.35156737 72.12364528 89.95184297 72.17813065 86.55209351 72.23242188 C84.44145217 72.26866157 82.33082506 72.30574154 80.22021484 72.34375 C79.22853239 72.36137516 78.23684994 72.37900032 77.2151165 72.39715958 C70.66378996 72.53491397 64.19229061 72.91234377 57.6736145 73.60540771 C54.13425435 73.63196502 52.07731061 72.45227075 49.13671875 70.63085938 C44.67090557 68.46523434 39.44474326 68.65532019 34.5625 68.375 C33.45390625 68.29765625 32.3453125 68.2203125 31.203125 68.140625 C28.49021692 67.95352789 25.77728425 67.78206419 23.0625 67.625 C22.96525635 68.24826172 22.8680127 68.87152344 22.76782227 69.51367188 C21.69533755 75.64348176 19.98970537 80.68140161 17 86.125 C16.60369385 86.8576709 16.2073877 87.5903418 15.79907227 88.34521484 C12.32225406 94.55749614 8.2273997 99.7100148 3.0625 104.625 C2.40507812 105.27855469 1.74765625 105.93210937 1.0703125 106.60546875 C-3.75687208 111.15155222 -8.90645075 113.95135171 -14.9375 116.625 C-16.3296875 117.29208984 -16.3296875 117.29208984 -17.75 117.97265625 C-32.92307394 124.89335354 -49.24276007 125.06929987 -64.9375 119.625 C-73.48749229 115.80133797 -81.02501602 110.93438135 -87.9375 104.625 C-88.68515625 103.944375 -89.4328125 103.26375 -90.203125 102.5625 C-99.96074608 92.73664381 -107.50170298 78.27043433 -109.9375 64.625 C-110.164375 63.59375 -110.39125 62.5625 -110.625 61.5 C-112.10793579 47.85699075 -108.8675217 34.89051498 -102.9375 22.625 C-102.49535156 21.68914062 -102.05320312 20.75328125 -101.59765625 19.7890625 C-98.03265402 12.73806087 -93.49365814 7.21081734 -87.9375 1.625 C-87.16019531 0.79548828 -87.16019531 0.79548828 -86.3671875 -0.05078125 C-62.93143931 -22.81167805 -24.07000325 -18.90735631 0 0 Z M-78.4375 13.4375 C-89.04303097 24.94710902 -94.05618668 37.9922683 -93.9375 53.625 C-93.08615684 69.74617898 -87.38430691 83.59949151 -75.66015625 94.80078125 C-65.15626787 103.84059442 -52.2731252 109.30150747 -38.25390625 108.46484375 C-24.6037156 106.21529233 -11.33691 98.73433944 -2.56640625 88.01953125 C2.61655631 80.40045199 6.94612601 71.84305953 8.0625 62.625 C8.19398438 61.71492188 8.32546875 60.80484375 8.4609375 59.8671875 C10.36412753 43.66892571 5.21507217 31.37910263 -3.59765625 18.12890625 C-4.03980469 17.63261719 -4.48195313 17.13632812 -4.9375 16.625 C-5.5975 16.625 -6.2575 16.625 -6.9375 16.625 C-6.9375 15.965 -6.9375 15.305 -6.9375 14.625 C-26.27548537 -4.77304123 -58.71807789 -5.30775905 -78.4375 13.4375 Z M63.0625 37.625 C62.21214761 41.68779475 62.13645198 44.59840604 63.0625 48.625 C77.9357256 48.67177384 92.80894549 48.7070152 107.68222904 48.72862434 C114.58855209 48.73892567 121.49482938 48.75296408 128.40112305 48.77587891 C135.0665646 48.797984 141.73194879 48.80957049 148.39742851 48.81475449 C150.93991278 48.81844869 153.48239445 48.8256625 156.02485847 48.83646011 C159.58702331 48.8509861 163.14899193 48.85297744 166.71118164 48.85205078 C167.76134964 48.85924133 168.81151764 48.86643188 169.89350891 48.87384033 C175.32050279 48.8585724 179.98352064 48.62647437 185.0625 46.625 C186.77760577 44.29841328 186.77760577 44.29841328 187.0625 41.625 C186.0725 40.14 186.0725 40.14 185.0625 38.625 C182.34468939 38.1219637 182.34468939 38.1219637 179.10424805 38.13525391 C177.84852493 38.10297699 176.59280182 38.07070007 175.29902649 38.03744507 C173.91159568 38.0168048 172.52415953 37.99652128 171.13671875 37.9765625 C169.6944465 37.94535635 168.25220052 37.9129138 166.8099823 37.87930298 C162.99420483 37.79415389 159.17831739 37.72724562 155.36211395 37.664505 C152.39769438 37.61357932 149.43354829 37.55202381 146.469347 37.48983383 C138.42060534 37.32108008 130.37164168 37.18618693 122.32202148 37.06738281 C119.33756075 37.02312661 116.35322243 36.97443414 113.36889648 36.921875 C96.5664832 36.62689736 79.84262911 36.48202139 63.0625 37.625 Z M25.0625 41.625 C24.39360034 44.5681585 23.93514551 46.95184055 24.5 49.9375 C26.6231041 52.23045243 28.66022105 52.30368016 31.6875 52.54296875 C35.81770542 52.68562387 39.92985001 52.68239792 44.0625 52.625 C43.5675 47.675 43.5675 47.675 43.0625 42.625 C37.01420514 41.72895632 31.1730424 41.51230557 25.0625 41.625 Z " fill="#131615" transform="translate(358.9375,363.375)"/>
<path d="M0 0 C1.06992188 -0.03738281 2.13984375 -0.07476562 3.2421875 -0.11328125 C6.9529083 0.43477914 7.74304218 1.44766595 10.125 4.3125 C11.25656285 6.67831709 12.23315796 8.94971446 13.1484375 11.39453125 C13.41709625 12.08576584 13.685755 12.77700043 13.96255493 13.48918152 C14.81837027 15.6974146 15.65952301 17.91088958 16.5 20.125 C17.05629757 21.57004455 17.61358127 23.01470987 18.171875 24.45898438 C19.00551794 26.61685058 19.8380689 28.77508982 20.66629028 30.93504333 C22.49365497 35.69935739 24.362458 40.44517209 26.265625 45.1796875 C28.72816027 51.30921482 31.14193369 57.45457356 33.5 63.625 C33.85449219 64.54216797 34.20898438 65.45933594 34.57421875 66.40429688 C34.90808594 67.27763672 35.24195313 68.15097656 35.5859375 69.05078125 C35.88290527 69.82462158 36.17987305 70.59846191 36.48583984 71.39575195 C37.125 73.3125 37.125 73.3125 37.125 75.3125 C37.785 75.3125 38.445 75.3125 39.125 75.3125 C39.50785156 74.12140625 39.89070313 72.9303125 40.28515625 71.703125 C42.49721836 65.07597805 45.03406324 58.57390596 47.5625 52.0625 C47.82078583 51.39607483 48.07907166 50.72964966 48.34518433 50.04302979 C52.35323521 39.71425457 56.46857275 29.43189169 60.6875 19.1875 C61.18757568 17.96772461 61.68765137 16.74794922 62.20288086 15.49121094 C62.67346924 14.3571582 63.14405762 13.22310547 63.62890625 12.0546875 C64.24487671 10.56751221 64.24487671 10.56751221 64.87329102 9.05029297 C66.125 6.3125 66.125 6.3125 69.125 1.3125 C77.045 1.3125 84.965 1.3125 93.125 1.3125 C93.125 52.1325 93.125 102.9525 93.125 155.3125 C84.875 155.3125 76.625 155.3125 68.125 155.3125 C67.27051659 139.61136738 67.0140825 123.97038677 67 108.25 C66.99750244 107.28027252 66.99500488 106.31054504 66.99243164 105.31143188 C66.96841932 93.93283154 67.15640865 82.65428549 68.125 71.3125 C67.465 71.3125 66.805 71.3125 66.125 71.3125 C65.99681885 72.04049805 65.8686377 72.76849609 65.73657227 73.51855469 C65.15378592 76.18099259 64.36682297 78.49600638 63.33984375 81.015625 C62.97802002 81.90548096 62.61619629 82.79533691 62.2434082 83.7121582 C61.8537085 84.652771 61.46400879 85.59338379 61.0625 86.5625 C60.6605542 87.53598389 60.2586084 88.50946777 59.84448242 89.51245117 C49.34816472 114.70897418 49.34816472 114.70897418 42.125 124.3125 C37.6620995 123.80245423 35.40943895 122.33725965 32.125 119.3125 C30.29150391 116.41845703 30.29150391 116.41845703 28.6015625 113.0703125 C28.13766617 112.16307938 28.13766617 112.16307938 27.66439819 111.23751831 C26.68186962 109.30955932 25.71577605 107.37389551 24.75 105.4375 C24.11044026 104.17654246 23.46982271 102.91612087 22.828125 101.65625 C21.23416108 98.51994319 19.6580188 95.37504161 18.08605957 92.22766113 C17.09501763 90.25275233 16.09310453 88.28365799 15.08886719 86.31542969 C14.44205549 85.04101654 13.79524553 83.76660251 13.1484375 82.4921875 C12.56755371 81.35249512 11.98666992 80.21280273 11.38818359 79.03857422 C10.125 76.3125 10.125 76.3125 10.125 74.3125 C9.465 74.3125 8.805 74.3125 8.125 74.3125 C8.125 100.7125 8.125 127.1125 8.125 154.3125 C0.205 154.3125 -7.715 154.3125 -15.875 154.3125 C-16.57703658 142.39557649 -17.14458365 130.49620157 -17.4375 118.5625 C-17.45834656 117.72598907 -17.47919312 116.88947815 -17.50067139 116.02761841 C-18.41579351 77.84796461 -18.66780919 39.46691258 -16.875 1.3125 C-11.25355112 0.7122675 -5.65581289 0.13136974 0 0 Z " fill="#121615" transform="translate(251.875,175.6875)"/>
<path d="M0 0 C8.25 0 16.5 0 25 0 C25 20.46 25 40.92 25 62 C32.26 61.67 39.52 61.34 47 61 C55.296875 60.9296875 55.296875 60.9296875 59 61 C59 61.66 59 62.32 59 63 C59.66 63 60.32 63 61 63 C61 42.21 61 21.42 61 0 C69.58 0 78.16 0 87 0 C88.125 11.25 88.125 11.25 88.12025452 16.63137817 C88.12231651 18.45683418 88.12231651 18.45683418 88.12442017 20.31916809 C88.11902725 22.27097237 88.11902725 22.27097237 88.11352539 24.26220703 C88.11324275 25.67253111 88.11340276 27.08285533 88.1139679 28.49317932 C88.11425286 32.2920659 88.10840501 36.09092041 88.10139394 39.88979959 C88.09511008 43.87093852 88.09455264 47.85207832 88.09336853 51.83322144 C88.09026998 59.35878849 88.08207662 66.88434088 88.07201904 74.4099015 C88.06081189 82.98312424 88.05533589 91.55634771 88.05032361 100.12957597 C88.03989267 117.75305893 88.02232201 135.37652828 88 153 C83.68751391 153.02886537 79.37505238 153.04675255 75.0625 153.0625 C73.83080078 153.07087891 72.59910156 153.07925781 71.33007812 153.08789062 C70.16025391 153.09111328 68.99042969 153.09433594 67.78515625 153.09765625 C66.70113525 153.10289307 65.61711426 153.10812988 64.50024414 153.11352539 C62 153 62 153 61 152 C60.83871779 148.98741705 60.73992494 145.99562183 60.68359375 142.98046875 C60.66281265 142.05269119 60.64203156 141.12491364 60.62062073 140.16902161 C60.57721851 138.18751853 60.53619439 136.2059622 60.49731445 134.22436523 C60.43904561 131.26597298 60.37356165 128.30781707 60.30664062 125.34960938 C60.03639962 112.89695112 59.96016948 100.45557315 60 88 C49.11 87.67 38.22 87.34 27 87 C26.71249962 92.90402559 26.42680246 98.8080852 26.14550781 104.71240234 C26.04952939 106.71603252 25.95254636 108.71961486 25.85449219 110.72314453 C25.1144473 125.15190772 25.1144473 125.15190772 25.01367188 139.59570312 C24.99001023 143.75677158 24.51117166 147.87411443 24 152 C19.08497242 153.29235715 14.22709898 153.11135517 9.1875 153.0625 C8.30384766 153.05798828 7.42019531 153.05347656 6.50976562 153.04882812 C4.33981441 153.03709866 2.16989828 153.01916495 0 153 C-0.95523595 149.78077045 -1.12567406 146.88462962 -1.12698364 143.53276062 C-1.12980347 142.42144272 -1.13262329 141.31012482 -1.13552856 140.16513062 C-1.13249222 138.34255234 -1.13249222 138.34255234 -1.12939453 136.4831543 C-1.13114685 135.19968613 -1.13289917 133.91621796 -1.13470459 132.59385681 C-1.13926522 129.07252807 -1.13749365 125.55122862 -1.1343255 122.02989936 C-1.13178891 118.33200996 -1.13414362 114.63412302 -1.13571167 110.93623352 C-1.13753207 104.71456454 -1.13513305 98.49290741 -1.13037109 92.27124023 C-1.12495502 85.11304027 -1.12667221 77.95486891 -1.1321975 70.79666966 C-1.13676389 64.63079801 -1.13736127 58.46493488 -1.13475883 52.29906207 C-1.13321193 48.62601779 -1.13295764 44.95298685 -1.13629532 41.27994347 C-1.13977135 37.16667421 -1.13492728 33.05345256 -1.12939453 28.94018555 C-1.13141876 27.7473999 -1.13344299 26.55461426 -1.13552856 25.32568359 C-1.11457351 16.83660259 -0.62801294 8.46274612 0 0 Z " fill="#131615" transform="translate(482,177)"/>
<path d="M0 0 C10.07208324 9.30224248 16.27994512 20.93306963 17.1796875 34.76171875 C17.18621899 36.84199802 17.1038847 38.92230597 17 41 C7.9401941 41.12224626 -0.97746114 40.83930594 -10 40 C-10.14695312 38.80503906 -10.14695312 38.80503906 -10.296875 37.5859375 C-11.32891234 30.27270738 -12.26835848 25.56046531 -17.703125 20.375 C-22.50056944 17.50306047 -28.61282765 18.43688094 -34 19 C-37.49659178 20.18463765 -39.34139844 22.15577984 -41.61035156 25.06420898 C-43.5495791 29.16104862 -43.49725633 32.80217208 -43.546875 37.28515625 C-43.57817505 38.66121033 -43.57817505 38.66121033 -43.61010742 40.06506348 C-43.67280624 43.06415704 -43.71275859 46.06298965 -43.75 49.0625 C-43.78407392 51.13208182 -43.81825446 53.20166189 -43.85253906 55.27124023 C-44.04435781 68.37089415 -44.03670617 81.4646002 -43.75 94.5625 C-43.73739136 95.32112335 -43.72478271 96.0797467 -43.71179199 96.86135864 C-43.67271442 98.99298211 -43.6134783 101.12298628 -43.546875 103.25390625 C-43.51432617 104.44314697 -43.48177734 105.6323877 -43.44824219 106.85766602 C-42.53591579 113.25339207 -38.85910459 116.27813266 -34 120 C-31.32344199 121.33827901 -29.17565948 121.20578556 -26.1875 121.25 C-25.14980469 121.27578125 -24.11210938 121.3015625 -23.04296875 121.328125 C-19.59299104 120.956112 -17.7820589 120.03266627 -15 118 C-13.98199424 116.68036291 -12.97751635 115.34990354 -12 114 C-11.34 114 -10.68 114 -10 114 C-10.01160156 113.34515625 -10.02320313 112.6903125 -10.03515625 112.015625 C-10.10504672 104.94670296 -9.66241135 98.03812058 -9 91 C-14.94 91 -20.88 91 -27 91 C-27 83.74 -27 76.48 -27 69 C-12.15 69 2.7 69 18 69 C18.0902066 83.70367631 18.0446767 98.3292461 17 113 C16.92394531 114.19625 16.84789063 115.3925 16.76953125 116.625 C15.90491312 124.59983074 12.54671067 129.33160646 7 135 C6.42894531 135.58652344 5.85789062 136.17304688 5.26953125 136.77734375 C-4.48346729 145.88168681 -16.62940797 148.55748466 -29.62890625 148.3125 C-42.3742128 147.13101156 -52.91536344 141.50410855 -61.07421875 131.7265625 C-73.44700596 114.20890435 -71.16551886 94.40117893 -71.13037109 73.85595703 C-71.12502103 70.13960675 -71.13033918 66.42337783 -71.13671875 62.70703125 C-71.14141753 52.37510153 -71.12889943 42.03878548 -70.68359375 31.71484375 C-70.66213287 31.02766266 -70.640672 30.34048157 -70.61856079 29.63247681 C-70.06268215 19.34735043 -64.16266337 10.18769462 -57.17578125 2.90234375 C-41.71209629 -10.61796967 -16.54334034 -12.74996294 0 0 Z " fill="#131615" transform="translate(71,184)"/>
<path d="M0 0 C0.73831055 0.00225586 1.47662109 0.00451172 2.23730469 0.00683594 C4.04362866 0.01268165 5.84994209 0.02164765 7.65625 0.03125 C7.66655746 0.95355408 7.67686493 1.87585815 7.68748474 2.82611084 C7.78723243 11.70348515 7.88992641 20.58082012 7.99558926 29.45812607 C8.04976058 34.01731571 8.10295745 38.57651148 8.15356445 43.13574219 C8.26172128 52.82810589 8.38364833 62.52005126 8.53708458 72.21181488 C8.60580549 76.56473896 8.66800865 80.91753051 8.71466064 85.27075195 C8.75995955 89.45350075 8.82417932 93.63555616 8.90223885 97.81781769 C8.92798899 99.3654648 8.94717747 100.91323752 8.95922661 102.46105194 C9.03737801 111.86391957 9.22397914 119.22962324 15.90625 126.46875 C20.69081121 129.18725069 25.45198155 129.43950388 30.78125 128.59375 C34.90972821 127.25951271 36.9225824 125.15720953 39.40139771 121.66131592 C42.00263169 116.20934609 41.51845519 110.2126691 41.49609375 104.2890625 C41.51235365 102.79807403 41.53138849 101.30711366 41.55296326 99.81619263 C41.59467261 96.59535182 41.61879633 93.37501959 41.63006592 90.15393066 C41.65095127 84.89584106 41.72610261 79.63926366 41.80908203 74.38183594 C41.9655327 64.17396897 42.08154436 53.96593706 42.18847656 43.75744629 C42.23989169 38.91509477 42.29493284 34.07278435 42.34960938 29.23046875 C42.45524057 19.83076387 42.55672903 10.43102156 42.65625 1.03125 C51.23625 1.03125 59.81625 1.03125 68.65625 1.03125 C68.67893856 14.68871466 68.69724425 28.34616658 68.70806217 42.0036459 C68.71325701 48.3469202 68.72029215 54.69018083 68.73168945 61.03344727 C68.7426401 67.16725357 68.74855237 73.3010468 68.75112724 79.43486214 C68.75295972 81.76253528 68.75653755 84.09020779 68.76198006 86.41787529 C68.80897852 107.37207107 68.80897852 107.37207107 68.34155273 117.62915039 C68.25695045 119.52607384 68.25695045 119.52607384 68.17063904 121.46131897 C66.71329522 131.57548652 60.48223603 141.54952348 52.65625 148.03125 C40.71058053 155.58704913 29.43397306 157.45617344 15.71875 154.84375 C5.48919474 152.46529582 -2.92435849 148.59928081 -9.34375 140.03125 C-14.0875097 132.09581508 -17.42831503 124.51883981 -17.8984375 115.23046875 C-17.94048309 114.40560471 -17.98252869 113.58074066 -18.02584839 112.73088074 C-18.57874637 100.46396847 -18.49633742 88.18225379 -18.47232056 75.90571976 C-18.4687171 73.82474886 -18.46712428 71.74378493 -18.46606445 69.66281128 C-18.45158959 46.77543414 -18.12958084 23.90603332 -17.34375 1.03125 C-11.52346132 0.19978019 -5.86722359 -0.03428041 0 0 Z " fill="#131615" transform="translate(135.34375,175.96875)"/>
<path d="M0 0 C1.00172241 0.00374634 1.00172241 0.00374634 2.02368164 0.00756836 C2.82926514 0.01667236 3.63484863 0.02577637 4.46484375 0.03515625 C5.8807751 0.0466672 7.29670963 0.05779064 8.71264648 0.06860352 C10.53904663 0.08298462 10.53904663 0.08298462 12.40234375 0.09765625 C13.16367375 22.56999834 13.64720146 45.03568718 13.93457031 67.51873779 C13.97551407 70.66851776 14.01923171 73.81825678 14.06300449 76.9679985 C14.11606297 80.79766081 14.16743368 84.62734528 14.21875 88.45703125 C14.22830782 89.15857079 14.23786564 89.86011032 14.24771309 90.58290863 C14.27487715 92.59790333 14.30066349 94.61291645 14.32641602 96.62792969 C14.34310333 97.88061646 14.35979065 99.13330322 14.37698364 100.4239502 C14.40905595 105.06999695 14.34142038 109.71315079 14.2440033 114.35821533 C14.56379779 119.8909652 16.98064105 123.51347324 20.58984375 127.53515625 C25.19809264 130.09529452 29.86321072 130.58130064 35.02734375 129.59765625 C40.25545078 126.29569392 44.55231137 122.50909663 46.09594727 116.32397461 C46.79608411 111.23668549 46.29088966 106.08174804 46.02734375 100.97265625 C45.90681075 98.18137936 45.8007759 95.38968348 45.69921875 92.59765625 C45.65829605 91.47639847 45.65829605 91.47639847 45.61654663 90.33248901 C45.28387676 80.54805857 45.27214498 70.76182974 45.27734375 60.97265625 C45.27768616 60.02522552 45.27802856 59.0777948 45.27838135 58.10165405 C45.30059954 39.09035828 45.75214458 20.09696018 46.40234375 1.09765625 C49.44407094 1.07055175 52.48555372 1.05076661 55.52734375 1.03515625 C56.38328125 1.02677734 57.23921875 1.01839844 58.12109375 1.00976562 C62.63466133 0.99240575 66.99734168 0.97881387 71.40234375 2.09765625 C73.07736371 5.44769617 72.5495302 9.22403855 72.54760742 12.90820312 C72.55096603 13.82258148 72.55432465 14.73695984 72.55778503 15.67904663 C72.56733489 18.72484681 72.56924193 21.77059199 72.5703125 24.81640625 C72.57352862 26.94844586 72.57689296 29.08048526 72.58039856 31.21252441 C72.58640424 35.70516468 72.58823762 40.19778569 72.58764648 44.69042969 C72.58756597 49.25231964 72.59438143 53.8141076 72.6081543 58.37597656 C72.73746872 101.91837597 72.73746872 101.91837597 71.578125 117.87890625 C71.50877243 118.87515015 71.43941986 119.87139404 71.3679657 120.89782715 C70.51398684 130.44203669 66.07485237 137.79300007 59.0703125 144.24609375 C48.99500599 152.57253753 38.98445958 156.74597794 25.7109375 156.34375 C17.17673523 155.4340127 9.14158483 152.49168678 2.40234375 147.09765625 C1.69242081 145.7868429 1.0179338 144.45532746 0.40234375 143.09765625 C-1.63125105 141.82961059 -1.63125105 141.82961059 -3.59765625 141.09765625 C-3.59765625 140.10765625 -3.59765625 139.11765625 -3.59765625 138.09765625 C-4.25765625 138.09765625 -4.91765625 138.09765625 -5.59765625 138.09765625 C-5.59765625 136.77765625 -5.59765625 135.45765625 -5.59765625 134.09765625 C-6.58765625 133.76765625 -7.57765625 133.43765625 -8.59765625 133.09765625 C-9.328125 131.25 -9.328125 131.25 -9.78515625 129.03515625 C-9.94371094 128.30167969 -10.10226562 127.56820312 -10.265625 126.8125 C-10.37519531 126.24660156 -10.48476563 125.68070312 -10.59765625 125.09765625 C-10.92765625 125.09765625 -11.25765625 125.09765625 -11.59765625 125.09765625 C-12.67223297 118.75455114 -12.93814718 112.44756963 -13.15625 106.0234375 C-13.19850204 104.78040359 -13.24075409 103.53736969 -13.2842865 102.25666809 C-13.86354828 83.61614315 -13.7084408 64.95994567 -13.6663208 46.31292725 C-13.65590324 41.1962527 -13.65148461 36.07957283 -13.64648438 30.96289062 C-13.63591026 21.00779903 -13.61895182 11.0527303 -13.59765625 1.09765625 C-12.1515754 0.93228662 -10.70534346 0.7682378 -9.25904846 0.60475159 C-8.45369439 0.51325616 -7.64834032 0.42176073 -6.81858158 0.32749271 C-4.53487391 0.09115911 -2.2957077 -0.01807644 0 0 Z " fill="#121615" transform="translate(612.59765625,175.90234375)"/>
<path d="M0 0 C12.45393552 -0.44478341 22.32852981 2.60055583 31.546875 11.15234375 C39.27450165 19.63163374 43.93526016 29.80318241 45.546875 41.15234375 C23.72097449 43.60174341 23.72097449 43.60174341 18.546875 40.15234375 C17.46290393 37.66433141 16.64777385 35.14112898 15.8046875 32.5625 C14.17232575 29.43465155 12.76608004 28.55791215 9.546875 27.15234375 C6.36950024 26.64352397 6.36950024 26.64352397 3.046875 26.71484375 C1.9434375 26.69550781 0.84 26.67617187 -0.296875 26.65625 C-4.08722803 27.25201093 -5.71331829 28.52587437 -8.453125 31.15234375 C-11.40221796 35.2810739 -11.68512556 40.57455973 -11.2421875 45.49609375 C-10.27936518 50.94603138 -8.75684994 53.45254751 -4.453125 57.15234375 C-2.04064844 58.51978438 0.29422315 59.73675882 2.796875 60.90234375 C4.22059575 61.59654236 5.64375385 62.29189585 7.06640625 62.98828125 C9.31051308 64.07463185 11.55637587 65.15688166 13.80615234 66.23144531 C28.8365967 73.47134285 37.58991363 81.51209226 43.796875 97.33984375 C47.65298284 111.80024814 45.53788045 124.26112023 38.3984375 137.171875 C35.22130194 142.28612486 32.25350407 145.66489585 27.109375 148.83984375 C26.18253906 149.42121094 25.25570312 150.00257813 24.30078125 150.6015625 C13.71364614 156.56339603 -0.44362405 156.71486339 -12.1171875 153.95703125 C-23.14749884 150.15729189 -29.7657501 140.78305188 -34.890625 130.77734375 C-37.74831554 124.87508372 -38.57970946 120.73473583 -38.453125 114.15234375 C-33.25139405 113.28424936 -28.28333684 113.02719027 -23.015625 113.08984375 C-21.91831055 113.09661133 -21.91831055 113.09661133 -20.79882812 113.10351562 C-19.01689081 113.11516227 -17.23499637 113.13309184 -15.453125 113.15234375 C-15.22238281 113.73242188 -14.99164063 114.3125 -14.75390625 114.91015625 C-11.37283254 123.47506935 -11.37283254 123.47506935 -4.4140625 129.03125 C0.80544392 130.45719763 5.64642274 130.63867848 10.546875 128.15234375 C15.50502093 124.35952702 17.46627979 119.84900407 18.36328125 113.7734375 C18.76054931 108.10180194 18.43731653 103.21654912 16.171875 97.96484375 C12.81800297 94.37140943 9.04568225 92.12809037 4.8125 89.66796875 C3.69101562 88.91773438 3.69101562 88.91773438 2.546875 88.15234375 C2.546875 87.49234375 2.546875 86.83234375 2.546875 86.15234375 C1.515625 86.04921875 0.484375 85.94609375 -0.578125 85.83984375 C-4.45281064 85.15239952 -7.02228842 84.01692885 -10.453125 82.15234375 C-11.236875 81.86359375 -12.020625 81.57484375 -12.828125 81.27734375 C-22.64525858 77.07000079 -29.96068049 70.56668069 -34.453125 60.828125 C-36.12977102 56.34178701 -36.93869175 51.90204249 -37.453125 47.15234375 C-37.53691406 46.44851562 -37.62070312 45.7446875 -37.70703125 45.01953125 C-38.29315004 35.07441884 -35.20363634 22.99676488 -29.140625 15.0390625 C-22.75770511 7.90260345 -15.45667539 2.57136475 -6.015625 0.33984375 C-4.00999535 0.23428429 -2.00454392 0.12448601 0 0 Z " fill="#131615" transform="translate(409.453125,175.84765625)"/>
<path d="M0 0 C2.50404043 2.87228166 3.15352805 4.73799161 3.375 8.49609375 C3.03881869 11.10675172 1.83642569 12.44745068 -0.15234375 14.109375 C-0.72082031 14.54765625 -1.28929687 14.9859375 -1.875 15.4375 C-7.38293521 20.00554902 -11.86164475 24.30432539 -15.5859375 30.45703125 C-16.87182188 32.43261725 -18.04235728 33.9534834 -19.875 35.4375 C-23.02772399 35.30334153 -25.32692143 34.68931988 -28.1875 33.375 C-30.84071327 30.3287181 -31.13111495 27.32404439 -30.875 23.4375 C-28.68062251 13.63498475 -23.11456978 6.20021189 -15.875 -0.5625 C-10.18664224 -3.21706695 -5.5188614 -2.9993812 0 0 Z " fill="#111413" transform="translate(311.875,381.5625)"/>
<path d="M0 0 C4.99472507 0.28541286 7.44211087 2.7730773 11 6 C10.52763325 10.8417592 8.16265609 13.97091716 5.25 17.6875 C4.81945312 18.26822266 4.38890625 18.84894531 3.9453125 19.44726562 C1.30020038 22.87244824 -0.80144661 24.82953997 -5 26 C-5 25.34 -5 24.68 -5 24 C-6.32 24 -7.64 24 -9 24 C-4.9 4.9 -4.9 4.9 0 0 Z " fill="#121514" transform="translate(280,23)"/>
</svg>
